<?xml version="1.0" standalone="no"?><!DOCTYPE svg PUBLIC "-//W3C//DTD SVG 1.1//EN" "http://www.w3.org/Graphics/SVG/1.1/DTD/svg11.dtd"><svg t="1722388833057" class="icon" viewBox="0 0 1024 1024" version="1.1" xmlns="http://www.w3.org/2000/svg" p-id="9123" xmlns:xlink="http://www.w3.org/1999/xlink" width="200" height="200"><path d="M873.28 707.84c-21.12 77.44-62.4 138.88-123.84 185.28-61.44 46.08-135.68 69.12-222.72 69.12-77.12 0-144.32-18.88-200.96-56.32-56.64-37.44-100.16-90.24-129.92-158.08-30.08-67.84-45.12-146.56-45.12-235.84s15.04-168 45.12-235.84 73.28-120.64 129.92-158.08c56.64-37.44 123.52-56.32 200.96-56.32 87.04 0 161.28 23.36 222.72 69.76 61.44 46.4 102.72 108.16 123.84 184.64l-134.08 45.12c-10.56-53.12-34.24-96-70.72-127.68-36.8-32-84.16-47.68-141.76-47.68-75.84 0-133.12 28.48-171.52 85.44-38.72 56.96-58.24 136.96-58.24 240.64 0 103.36 19.2 183.68 57.92 240.96 38.72 56.96 95.68 85.44 171.52 85.44 57.92 0 104.96-16 141.76-47.68 36.8-32 60.48-74.56 70.72-127.68l134.4 44.8z" p-id="9124"></path></svg>