<?xml version="1.0" standalone="no"?>
<svg xmlns="http://www.w3.org/2000/svg" width="24" height="24"><rect width="24" height="24" opacity="0"></rect><g><path d="M13.39 12Q12.94 12 12.68 12.24Q12.43 12.48 12.43 12.96L12.43 20.86Q12.43 21.34 12.68 21.58Q12.94 21.82 13.39 21.82L21.29 21.82Q21.77 21.82 22.01 21.58Q22.25 21.34 22.25 20.86L22.25 12.96Q22.25 12.48 22.01 12.24Q21.77 12 21.29 12L13.39 12ZM13.92 7.27Q13.61 7.27 13.39 7.06Q13.18 6.84 13.18 6.53Q13.18 6.22 13.39 6Q13.61 5.78 13.92 5.78L21.14 5.78Q21.46 5.78 21.67 6Q21.89 6.22 21.89 6.53Q21.89 6.84 21.67 7.06Q21.46 7.27 21.14 7.27L13.92 7.27ZM15.43 16.39Q15.12 16.39 14.9 16.18Q14.69 15.96 14.69 15.65Q14.69 15.34 14.9 15.12Q15.12 14.9 15.43 14.9L19.63 14.9Q19.94 14.9 20.16 15.12Q20.38 15.34 20.38 15.65Q20.38 15.96 20.16 16.18Q19.94 16.39 19.63 16.39L15.43 16.39ZM15.43 19.27Q15.12 19.27 14.9 19.06Q14.69 18.84 14.69 18.53Q14.69 18.22 14.9 17.99Q15.12 17.76 15.43 17.76L19.63 17.76Q19.94 17.76 20.16 17.99Q20.38 18.22 20.38 18.53Q20.38 18.84 20.16 19.06Q19.94 19.27 19.63 19.27L15.43 19.27ZM9.7 5.78Q10.01 5.78 10.22 6Q10.44 6.22 10.44 6.53Q10.44 6.84 10.22 7.06Q10.01 7.27 9.7 7.27L6.84 7.27L6.84 10.13Q6.84 10.44 6.62 10.66Q6.41 10.87 6.1 10.87Q5.78 10.87 5.57 10.66Q5.35 10.44 5.35 10.13L5.35 7.27L2.5 7.27Q2.18 7.27 1.97 7.06Q1.75 6.84 1.75 6.53Q1.75 6.22 1.97 6Q2.18 5.78 2.5 5.78L5.35 5.78L5.35 2.93Q5.35 2.62 5.57 2.4Q5.78 2.18 6.1 2.18Q6.41 2.18 6.62 2.4Q6.84 2.62 6.84 2.93L6.84 5.78L9.7 5.78ZM9.46 14.06Q9.67 14.28 9.66 14.59Q9.65 14.9 9.46 15.12L7.13 17.42L9.46 19.7Q9.65 19.92 9.65 20.23Q9.65 20.54 9.46 20.76Q9.19 21.02 8.89 21.01Q8.59 21 8.4 20.76L6.1 18.48L3.77 20.78Q3.55 21 3.26 21Q2.98 21 2.71 20.78Q2.5 20.57 2.5 20.26Q2.5 19.94 2.71 19.73L5.04 17.42L2.74 15.12Q2.52 14.9 2.52 14.59Q2.52 14.28 2.74 14.06Q2.93 13.85 3.25 13.85Q3.58 13.85 3.79 14.06L6.1 16.37L8.4 14.06Q8.62 13.85 8.93 13.85Q9.24 13.85 9.46 14.06Z" fill="rgba(0,0,0,0.9019607843137255)"></path></g></svg>