<?xml version="1.0" standalone="no"?>
<svg xmlns="http://www.w3.org/2000/svg" width="24" height="24"><rect width="24" height="24" opacity="0"></rect><g><path d="M17.28 14.21Q17.5 14.42 17.5 14.74Q17.5 15.05 17.28 15.26Q17.04 15.48 16.75 15.48Q16.46 15.48 16.2 15.26L13.99 13.03L11.76 15.26L11.71 15.31Q11.5 15.48 11.2 15.47Q10.9 15.46 10.7 15.26Q10.51 15.07 10.5 14.78Q10.49 14.5 10.66 14.26L10.7 14.21L12.94 11.98L10.7 9.77Q10.49 9.53 10.49 9.22Q10.49 8.9 10.7 8.69Q10.9 8.5 11.18 8.48Q11.47 8.47 11.71 8.64L11.76 8.69L13.99 10.92L16.2 8.69Q16.44 8.47 16.74 8.47Q17.04 8.47 17.28 8.69Q17.5 8.9 17.5 9.22Q17.5 9.53 17.28 9.77L15.05 11.98L17.28 14.21Z" fill="rgba(0,0,0,0.9019607843137255)"></path><path d="M7.85 6.5Q7.42 6.5 7.13 6.79L2.95 10.92Q2.74 11.16 2.62 11.44Q2.5 11.71 2.5 12Q2.5 12.31 2.62 12.59Q2.74 12.86 2.95 13.08L7.13 17.21Q7.42 17.5 7.85 17.5L21.07 17.5Q21.22 17.5 21.35 17.3Q21.48 17.11 21.48 16.82L21.48 7.18Q21.48 6.89 21.35 6.7Q21.22 6.5 21.07 6.5L7.85 6.5ZM21.07 4.99Q21.86 4.99 22.43 5.63Q22.99 6.26 22.99 7.18L22.99 16.8Q22.99 17.71 22.43 18.35Q21.86 18.98 21.07 18.98L7.85 18.98Q7.34 18.98 6.89 18.79Q6.43 18.6 6.07 18.26L1.9 14.14Q1.3 13.56 1.09 12.78Q0.89 12 1.09 11.22Q1.3 10.44 1.9 9.86L6.07 5.71Q6.43 5.38 6.89 5.18Q7.34 4.99 7.85 4.99L21.07 4.99Z" fill="rgba(0,0,0,0.9019607843137255)"></path></g></svg>