<?xml version="1.0" standalone="no"?><!DOCTYPE svg PUBLIC "-//W3C//DTD SVG 1.1//EN" "http://www.w3.org/Graphics/SVG/1.1/DTD/svg11.dtd"><svg t="1722388908198" class="icon" viewBox="0 0 1024 1024" version="1.1" xmlns="http://www.w3.org/2000/svg" p-id="12307" xmlns:xlink="http://www.w3.org/1999/xlink" width="200" height="200"><path d="M377.6 390.4l115.2-19.2c19.2 32 32 70.4 44.8 108.8 19.2-32 38.4-57.6 44.8-70.4 19.2-12.8 32-25.6 38.4-32 12.8-6.4 19.2-6.4 32-6.4s19.2 6.4 25.6 12.8c6.4 6.4 12.8 12.8 12.8 25.6s-6.4 19.2-12.8 25.6c-6.4 6.4-12.8 12.8-25.6 12.8-6.4 0-12.8 0-25.6-6.4-6.4 0-12.8-6.4-19.2-6.4-6.4 0-12.8 6.4-19.2 12.8-12.8 6.4-25.6 25.6-44.8 57.6 19.2 64 32 108.8 44.8 121.6 6.4 6.4 12.8 12.8 19.2 12.8 6.4 0 12.8 0 12.8-6.4l32-32 12.8 6.4c-19.2 32-38.4 51.2-57.6 64-12.8 12.8-25.6 12.8-44.8 12.8-12.8 0-25.6-6.4-38.4-6.4-6.4-6.4-19.2-19.2-25.6-32 0-12.8-6.4-32-19.2-64-25.6 32-44.8 57.6-64 70.4-12.8 12.8-25.6 25.6-38.4 32-12.8 6.4-19.2 6.4-32 6.4s-19.2-6.4-25.6-12.8c-6.4-6.4-12.8-19.2-12.8-25.6 0-12.8 6.4-19.2 12.8-25.6 6.4-6.4 19.2-12.8 25.6-12.8 6.4 0 12.8 0 19.2 6.4 19.2 6.4 25.6 6.4 32 6.4 6.4 0 12.8 0 19.2-6.4 6.4-6.4 12.8-12.8 25.6-19.2 6.4-6.4 12.8-19.2 32-44.8-19.2-76.8-38.4-128-51.2-140.8-6.4-12.8-19.2-12.8-25.6-12.8h-19.2v-12.8z" fill="#454859" p-id="12308"></path><path d="M140.8 108.8c-12.8 0-19.2 0-25.6 6.4-6.4 6.4-6.4 12.8-6.4 25.6v742.4c0 19.2 12.8 32 32 32h742.4c19.2 0 32-12.8 32-32V140.8c0-19.2-12.8-32-32-32H140.8z m742.4 870.4H140.8c-51.2 0-96-44.8-96-96V140.8c0-51.2 44.8-96 96-96h742.4c51.2 0 96 44.8 96 96v742.4c0 51.2-44.8 96-96 96z" fill="#454859" p-id="12309"></path><path d="M806.4 339.2c0 12.8-6.4 32-19.2 64-6.4 32-19.2 51.2-19.2 57.6-6.4 6.4-12.8 6.4-12.8 12.8h-32v-6.4c0-6.4 0-6.4 6.4-12.8 12.8 0 19.2 6.4 25.6 0 6.4 0 12.8-12.8 19.2-32H768s-6.4-12.8-12.8-32L742.4 352c0-6.4 0-6.4-6.4-12.8l-6.4-6.4h-6.4v-6.4s0-6.4 6.4-6.4h25.6l6.4 6.4s0 6.4 6.4 12.8c0 6.4 6.4 19.2 6.4 38.4 6.4 19.2 6.4 25.6 6.4 25.6s6.4-12.8 6.4-32c6.4-19.2 6.4-32 6.4-44.8h-6.4v-12.8h32v12.8c-6.4 12.8-6.4 12.8-12.8 12.8z" fill="#454859" p-id="12310"></path></svg>