<?xml version="1.0" standalone="no"?><!DOCTYPE svg PUBLIC "-//W3C//DTD SVG 1.1//EN" "http://www.w3.org/Graphics/SVG/1.1/DTD/svg11.dtd"><svg t="1722475229742" class="icon" viewBox="0 0 1024 1024" version="1.1" xmlns="http://www.w3.org/2000/svg" p-id="14565" xmlns:xlink="http://www.w3.org/1999/xlink" width="200" height="200"><path d="M527.24 251.73c60.66 0 109.862-49.167 109.862-109.826s-49.202-109.826-109.862-109.826c-60.66 0-109.862 49.167-109.862 109.826 0.035 60.625 49.202 109.826 109.862 109.826zM527.24 727.614c-60.66 0-109.862 49.167-109.862 109.826s49.202 109.826 109.862 109.826c60.66 0 109.862-49.167 109.862-109.826s-49.202-109.826-109.862-109.826zM527.24 379.826c-60.66 0-109.862 49.167-109.862 109.826s49.202 109.826 109.862 109.826c60.66 0 109.862-49.167 109.862-109.826 0-60.66-49.202-109.826-109.862-109.826z" p-id="14566"></path></svg>